<svg viewBox="0 0 512 512" xmlns="http://www.w3.org/2000/svg" xmlns:xlink="http://www.w3.org/1999/xlink"><linearGradient id="a" gradientUnits="userSpaceOnUse" x1="150" x2="234" y1="119.2" y2="264.8"><stop offset="0" stop-color="#fbbf24"/><stop offset=".5" stop-color="#fbbf24"/><stop offset="1" stop-color="#f59e0b"/></linearGradient><clipPath id="b"><path d="m64 64h384v192h-120a72 72 0 0 0 -72 72v120h-192z"/></clipPath><symbol id="c" viewBox="0 0 384 384"><circle cx="192" cy="192" fill="url(#a)" r="84" stroke="#f8af18" stroke-miterlimit="10" stroke-width="6"/><path d="m192 61.7v-49.7m0 360v-49.7m92.2-222.5 35-35m-254.4 254.4 35.1-35.1m0-184.4-35-35m254.5 254.5-35.1-35.1m-222.6-92.1h-49.7m360 0h-49.7" fill="none" stroke="#fbbf24" stroke-linecap="round" stroke-miterlimit="10" stroke-width="24"/></symbol><g clip-path="url(#b)"><use height="384" transform="translate(64 64)" width="384" xlink:href="#c"/><path d="m254 338v-10a74 74 0 0 1 74-74h10" fill="none" stroke="#f8af18" stroke-miterlimit="10" stroke-width="6"/></g><path d="m337.7 388q-14.4 0-22.1-6.8t-7.8-19.3v-45.9h18.3v46q0 11 11.7 11t11.6-11v-46h18.3v45.9q0 12.7-7.8 19.4t-22.2 6.7zm75.7-43.5 8.2-28.5h18.6l-22.6 69.8h-19.4l-22.4-69.8h18.8l8.2 28.4 5.4 22z" fill="#374251"/></svg>